<svg width="7" height="10" viewBox="0 0 7 10" fill="none" xmlns="http://www.w3.org/2000/svg">
<path d="M6.25977 8.13867C6.29883 8.18555 6.31836 8.24805 6.31836 8.32617C6.31836 8.4668 6.25391 8.60547 6.125 8.74219C6 8.875 5.88867 8.94141 5.79102 8.94141C5.7207 8.94141 5.61719 8.86719 5.48047 8.71875L5.14648 8.39062C4.90039 8.14844 4.47461 7.84961 3.86914 7.49414C3.26758 7.13867 2.46484 6.61328 1.46094 5.91797L1.39062 5.60156V5.55469C1.39062 5.49609 1.42188 5.45898 1.48438 5.44336C1.54688 5.42383 1.63867 5.39258 1.75977 5.34961C2.50195 5.10742 3.02148 4.82227 3.31836 4.49414C3.61523 4.16211 3.76367 3.7168 3.76367 3.1582C3.76367 2.49023 3.56836 2.01367 3.17773 1.72852C2.79102 1.43945 2.3457 1.29492 1.8418 1.29492H1.58984C1.46875 1.29492 1.35742 1.33008 1.25586 1.40039C1.1582 1.4707 1.10938 1.64844 1.10938 1.93359C1.10938 2.07031 1.11328 2.18359 1.12109 2.27344C1.13281 2.35938 1.13867 2.48242 1.13867 2.64258L1.07422 4.10156C1.07422 4.33203 1.07617 4.51367 1.08008 4.64648L1.09766 5.07422L1.07422 5.33789C1.05859 5.54492 1.05078 5.76562 1.05078 6C1.05078 6.21484 1.08398 7.19141 1.15039 8.92969C1.12695 8.95703 1.0957 9 1.05664 9.05859C1.02148 9.11719 0.992188 9.14648 0.96875 9.14648C0.949219 9.14648 0.921875 9.13281 0.886719 9.10547C0.636719 9.17969 0.503906 9.2168 0.488281 9.2168C0.425781 9.2168 0.363281 9.17578 0.300781 9.09375C0.242188 9.01172 0.212891 8.88867 0.212891 8.72461V8.66602C0.396484 8.37695 0.488281 7.79688 0.488281 6.92578L0.453125 4.77539L0.488281 3.22852L0.476562 2.30273C0.476562 2.16602 0.460938 1.98633 0.429688 1.76367C0.398438 1.53711 0.382812 1.37695 0.382812 1.2832C0.382812 1.19727 0.396484 1.13281 0.423828 1.08984C0.455078 1.04688 0.503906 1.01953 0.570312 1.00781C0.640625 0.996094 0.769531 0.980469 0.957031 0.960938C1.14453 0.9375 1.34375 0.925781 1.55469 0.925781C1.94922 0.925781 2.30859 0.962891 2.63281 1.03711C2.95703 1.10742 3.26758 1.22656 3.56445 1.39453C3.86523 1.5625 4.07422 1.74219 4.19141 1.93359C4.30859 2.12109 4.39648 2.31055 4.45508 2.50195C4.51367 2.69336 4.54297 2.87891 4.54297 3.05859C4.54297 4.08203 3.875 4.85938 2.53906 5.39062C2.44531 5.46094 2.39844 5.52344 2.39844 5.57812C2.39844 5.67188 2.47656 5.78125 2.63281 5.90625C2.79297 6.02734 3.08984 6.22656 3.52344 6.50391C3.63672 6.55859 3.77148 6.64648 3.92773 6.76758C4.08398 6.88867 4.18945 6.96875 4.24414 7.00781C4.4082 7.07031 4.55469 7.15234 4.68359 7.25391C4.8125 7.35156 4.91602 7.41016 4.99414 7.42969C5.07617 7.44922 5.12695 7.46484 5.14648 7.47656C5.14648 7.51172 5.17383 7.55078 5.22852 7.59375C5.37305 7.66797 5.54883 7.7793 5.75586 7.92773C5.96289 8.07617 6.10742 8.15039 6.18945 8.15039C6.2207 8.15039 6.24414 8.14648 6.25977 8.13867Z" fill="#673FD7"/>
</svg>
